#!OML:ASF H:\Terrain\Patient Classification 1\Takeo\Monday\TakeoMonday.ASF
:FULLY-SPECIFIED
:DEGREES
388
root 4.73768 17.5196 1.58377 -179.333 75.0432 -176.338
lowerback 8.97037 -2.10583 0.393851
upperback 4.56403 -2.60111 -1.75111
thorax -0.397453 -1.1974 -1.78867
lowerneck -4.14551 -13.2004 -10.1893
upperneck 1.06376 -17.442 9.79356
head 2.71872 -8.56997 3.64402
rclavicle 7.97127e-014 -2.62396e-014
rhumerus -3.77799 30.1024 -96.8696
rradius 59.7351
rwrist -12.9896
rhand -45.5416 30.9297
rfingers 7.12502
rthumb -18.3048 1.77092
lclavicle 7.97127e-014 -2.62396e-014
lhumerus -0.884142 -29.9859 90.0511
lradius 73.74
lwrist 23.8941
lhand -28.0134 28.755
lfingers 7.12502
lthumb -1.39884 58.7302
rfemur -7.53743 -2.09458 14.4759
rtibia 28.7647
rfoot -16.6293 -17.116
rtoes 2.42944
lfemur -7.63445 8.22585 -11.5137
ltibia 28.9175
lfoot -12.8721 15.4105
ltoes -7.96631
389
root 4.72293 17.5165 1.54345 -178.217 74.5421 -175.241
lowerback 9.10413 -2.02972 0.898507
upperback 4.5109 -2.46216 -1.71797
thorax -0.540517 -1.12273 -2.0453
lowerneck -3.81495 -13.3948 -10.2813
upperneck 1.02465 -17.7433 10.0982
head 2.72071 -8.72411 3.73907
rclavicle 6.38099e-014 1.35174e-014
rhumerus -3.19828 30.0311 -97.6162
rradius 59.0613
rwrist -12.3463
rhand -44.869 31.0032
rfingers 7.12502
rthumb -17.6576 1.78494
lclavicle 6.38099e-014 1.35174e-014
lhumerus -0.875402 -30.0395 89.5568
lradius 74.3917
lwrist 23.8156
lhand -28.975 28.3493
lfingers 7.12502
lthumb -2.32753 58.3164
rfemur -7.41775 -2.1889 14.6758
rtibia 28.5661
rfoot -16.6089 -17.4391
rtoes 3.44564
lfemur -8.07129 7.79365 -11.3723
ltibia 29.3961
lfoot -13.4557 15.2437
ltoes -6.21851
390
root 4.70847 17.517 1.5028 -177.699 74.1657 -174.796
lowerback 9.22652 -1.86236 1.29358
upperback 4.48721 -2.20756 -1.83126
thorax -0.63993 -0.989097 -2.40545
lowerneck -3.73263 -13.682 -9.82012
upperneck 1.0834 -18.1648 10.1028
head 2.72605 -8.93286 3.64604
rclavicle -2.6339e-014 -7.95139e-016
rhumerus -3.34818 31.3092 -97.8028
rradius 60.1119
rwrist -13.9375
rhand -44.8184 31.3839
rfingers 7.12502
rthumb -17.6089 2.16129
lclavicle -2.6339e-014 -7.95139e-016
lhumerus -0.660492 -30.1862 89.079
lradius 74.946
lwrist 23.2661
lhand -29.5567 28.6412
lfingers 7.12502
lthumb -2.88933 58.6014
rfemur -7.41127 -2.38063 14.672
rtibia 28.4451
rfoot -16.4632 -17.6587
rtoes 2.57192
lfemur -8.53611 7.98394 -11.3583
ltibia 29.9077
lfoot -13.8852 14.6203
ltoes -5.78723
391
root 4.69492 17.513 1.46802 -177.703 73.802 -174.94
lowerback 9.23019 -1.80585 1.08425
upperback 4.55486 -2.14245 -1.60441
thorax -0.552809 -0.958928 -2.06066
lowerneck -3.88241 -13.9063 -9.87745
upperneck 1.04815 -18.4413 9.96503
head 2.75604 -9.06849 3.58063
rclavicle -1.33186e-014 -4.77083e-015
rhumerus -2.74299 32.1048 -98.216
rradius 59.5145
rwrist -14.2311
rhand -45.0543 33.0392
rfingers 7.12502
rthumb -17.8359 3.83708
lclavicle -1.33186e-014 -4.77083e-015
lhumerus -0.11085 -29.6422 88.7704
lradius 75.3617
lwrist 22.6408
lhand -30.6213 29.492
lfingers 7.12502
lthumb -3.91748 59.4357
rfemur -7.50327 -2.64165 14.4991
rtibia 28.4508
rfoot -16.3858 -17.8162
rtoes 1.7878
lfemur -9.08576 8.86335 -11.4496
ltibia 30.4057
lfoot -13.4539 13.7548
ltoes -7.80134
392
root 4.67841 17.5047 1.44048 -177.559 73.3775 -174.84
lowerback 9.36354 -1.76244 0.98128
upperback 4.6321 -2.08356 -1.43076
thorax -0.533455 -0.929419 -1.82696
lowerneck -3.84941 -14.1522 -9.73445
upperneck 0.720909 -18.7549 9.88232
head 2.66004 -9.22811 3.52677
rclavicle 2.5842e-015 0
rhumerus -2.16154 32.8687 -98.4099
rradius 59.0564
rwrist -13.5027
rhand -45.472 33.4007
rfingers 7.12502
rthumb -18.2378 4.23569
lclavicle 2.5842e-015 0
lhumerus 0.696994 -29.1195 88.1751
lradius 75.6151
lwrist 22.3082
lhand -32.1747 30.4438
lfingers 7.12502
lthumb -5.41742 60.3545
rfemur -7.55006 -2.81011 14.4471
rtibia 28.5564
rfoot -16.5688 -17.9773
rtoes 1.44757
lfemur -9.58576 9.52497 -11.4587
ltibia 30.899
lfoot -12.9162 13.0951
ltoes -9.89512
